<svg width="32" height="32" viewBox="0 0 32 32" fill="none" xmlns="http://www.w3.org/2000/svg">
<g clip-path="url(#clip0_503_377)">
<path fill-rule="evenodd" clip-rule="evenodd" d="M31.3334 15.4272C31.3334 6.9068 24.4687 0 16.0019 0C7.53133 0.00191643 0.666687 6.90681 0.666687 15.4292C0.666687 23.1274 6.27415 29.5091 13.6026 30.6667V19.8868H9.71222V15.4292H13.6064V12.0275C13.6064 8.16206 15.8965 6.02716 19.3978 6.02716C21.0766 6.02716 22.8302 6.32804 22.8302 6.32804V10.1226H20.8965C18.9935 10.1226 18.3994 11.3127 18.3994 12.5334V15.4272H22.65L21.9716 19.8848H18.3975V30.6648C25.7259 29.5072 31.3334 23.1255 31.3334 15.4272Z" fill="#033A89"/>
</g>
<defs>
<clipPath id="clip0_503_377">
<rect width="32" height="32" fill="white"/>
</clipPath>
</defs>
</svg>
