<svg width="76" height="72" viewBox="0 0 76 72" fill="none" xmlns="http://www.w3.org/2000/svg">
<g clip-path="url(#clip0_3_396)">
<path d="M67.426 27.6615C65.0311 27.6615 62.9235 28.6557 61.3748 30.2111C55.6748 26.2503 47.9949 23.7007 39.4848 23.4281L43.9075 3.41559L57.9899 6.59064C57.9899 10.0543 60.8 12.8766 64.2487 12.8766C67.7613 12.8766 70.5874 9.97416 70.5874 6.51046C70.5874 3.04677 67.7773 0.144318 64.2487 0.144318C61.7899 0.144318 59.6664 1.63563 58.6126 3.67216L43.0613 0.20846C42.279 -3.11434e-06 41.5126 0.561244 41.305 1.34699L36.4512 23.412C28.005 23.7648 20.405 26.3145 14.6891 30.2753C13.1403 28.6557 10.9529 27.6615 8.55796 27.6615C-0.319349 27.6615 -3.22523 39.624 4.90166 43.7131C4.61426 44.9799 4.48653 46.3269 4.48653 47.6739C4.48653 61.1118 19.5588 72 38.0638 72C56.6487 72 71.721 61.1118 71.721 47.6739C71.721 46.3269 71.5773 44.9158 71.226 43.649C79.1933 39.5439 76.2554 27.6615 67.426 27.6615ZM17.7865 44.563C17.7865 41.0352 20.5966 38.1969 24.1252 38.1969C27.5739 38.1969 30.384 41.0191 30.384 44.563C30.384 48.0267 27.5739 50.849 24.1252 50.849C20.6126 50.865 17.7865 48.0267 17.7865 44.563ZM52.0025 59.5563C46.1907 65.3933 29.7933 65.3933 23.9815 59.5563C23.3428 58.9951 23.3428 58.0009 23.9815 57.3595C24.5403 56.7982 25.5302 56.7982 26.0891 57.3595C30.5277 61.9296 45.2487 62.0098 49.879 57.3595C50.4378 56.7982 51.4277 56.7982 51.9865 57.3595C52.6412 58.0009 52.6412 58.9951 52.0025 59.5563ZM51.8748 50.865C48.426 50.865 45.6159 48.0427 45.6159 44.5791C45.6159 41.0512 48.426 38.2129 51.8748 38.2129C55.3874 38.2129 58.2134 41.0352 58.2134 44.5791C58.1975 48.0267 55.3874 50.865 51.8748 50.865Z" fill="white"/>
</g>
<defs>
<clipPath id="clip0_3_396">
<rect width="76" height="72" fill="white"/>
</clipPath>
</defs>
</svg>
