<svg width="32" height="35" viewBox="0 0 32 35" fill="none" xmlns="http://www.w3.org/2000/svg">
<g clip-path="url(#clip0_503_366)">
<path fill-rule="evenodd" clip-rule="evenodd" d="M-1.22501 7.62188C-1.00657 6.64019 -0.46959 5.76368 0.297987 5.13589C1.06556 4.50811 2.01824 4.16625 2.99999 4.16632H29C29.9817 4.16625 30.9344 4.50811 31.702 5.13589C32.4696 5.76368 33.0065 6.64019 33.225 7.62188L16 18.4197L-1.22501 7.62188ZM-1.33334 10.1597V25.9463L11.2398 18.0397L-1.33334 10.1597ZM13.3155 19.3441L-0.91951 28.293C-0.567803 29.0536 -0.0127025 29.6962 0.681183 30.1458C1.37507 30.5955 2.1792 30.8338 2.99999 30.833H29C29.8206 30.8332 30.6245 30.5943 31.318 30.1443C32.0115 29.6942 32.5661 29.0515 32.9173 28.2908L18.6823 19.3419L16 21.0241L13.3155 19.3419V19.3441ZM20.7602 18.0419L33.3333 25.9463V10.1597L20.7602 18.0397V18.0419Z" fill="#033A89"/>
</g>
<defs>
<clipPath id="clip0_503_366">
<rect width="32" height="34.6667" fill="white"/>
</clipPath>
</defs>
</svg>
