<svg width="68" height="56" viewBox="0 0 68 56" fill="none" xmlns="http://www.w3.org/2000/svg">
<g clip-path="url(#clip0_3_290)">
<path fill-rule="evenodd" clip-rule="evenodd" d="M65.0485 54.7776C65.0485 54.7776 69.4165 54.7776 69.4165 50.3703C69.4165 45.9629 65.0485 32.7407 47.5763 32.7407C30.1041 32.7407 25.7361 45.9629 25.7361 50.3703C25.7361 54.7776 30.1041 54.7776 30.1041 54.7776H65.0485ZM30.2002 50.3703H64.9524C64.9728 50.3678 64.9932 50.3649 65.0135 50.3614L65.0485 50.3526C65.0397 49.1891 64.319 45.813 61.7287 42.7719C59.3176 39.9203 55.0806 37.1481 47.5763 37.1481C40.0763 37.1481 35.8393 39.9247 33.4238 42.7719C30.8336 45.813 30.1085 49.1935 30.1041 50.3526C30.1361 50.3588 30.1681 50.3647 30.2002 50.3703ZM47.5763 23.9259C49.8932 23.9259 52.1153 22.9972 53.7536 21.3441C55.392 19.691 56.3124 17.4489 56.3124 15.1111C56.3124 12.7732 55.392 10.5312 53.7536 8.87808C52.1153 7.22498 49.8932 6.29628 47.5763 6.29628C45.2593 6.29628 43.0373 7.22498 41.3989 8.87808C39.7606 10.5312 38.8402 12.7732 38.8402 15.1111C38.8402 17.4489 39.7606 19.691 41.3989 21.3441C43.0373 22.9972 45.2593 23.9259 47.5763 23.9259ZM60.6804 15.1111C60.6804 16.8474 60.3415 18.5668 59.6829 20.171C59.0244 21.7752 58.0591 23.2328 56.8423 24.4606C55.6255 25.6884 54.1809 26.6623 52.591 27.3268C51.0011 27.9913 49.2971 28.3333 47.5763 28.3333C45.8554 28.3333 44.1514 27.9913 42.5615 27.3268C40.9717 26.6623 39.5271 25.6884 38.3102 24.4606C37.0934 23.2328 36.1282 21.7752 35.4696 20.171C34.8111 18.5668 34.4721 16.8474 34.4721 15.1111C34.4721 11.6043 35.8527 8.24122 38.3102 5.76158C40.7678 3.28194 44.1008 1.88889 47.5763 1.88889C51.0517 1.88889 54.3848 3.28194 56.8423 5.76158C59.2998 8.24122 60.6804 11.6043 60.6804 15.1111ZM29.8245 33.9747C28.0772 33.4196 26.2761 33.0546 24.4518 32.8861C23.4268 32.7878 22.3977 32.7392 21.368 32.7407C3.89582 32.7407 -0.472222 45.9629 -0.472222 50.3703C-0.472222 53.31 0.982337 54.7776 3.89582 54.7776H22.3115C21.664 53.4017 21.341 51.8932 21.368 50.3703C21.368 45.9188 23.0148 41.3703 26.1292 37.5712C27.1906 36.2754 28.4268 35.0634 29.8245 33.9747ZM21.0186 37.1481C13.7327 37.2362 9.59612 39.9688 7.21554 42.7719C4.60781 45.8306 3.89582 49.2199 3.89582 50.3703H17C17 45.7645 18.4108 41.1764 21.0186 37.1481ZM6.07985 17.3148C6.07985 13.808 7.46046 10.4449 9.91796 7.96528C12.3755 5.48563 15.7085 4.09259 19.184 4.09259C22.6594 4.09259 25.9925 5.48563 28.45 7.96528C30.9075 10.4449 32.2881 13.808 32.2881 17.3148C32.2881 20.8215 30.9075 24.1846 28.45 26.6643C25.9925 29.1439 22.6594 30.537 19.184 30.537C15.7085 30.537 12.3755 29.1439 9.91796 26.6643C7.46046 24.1846 6.07985 20.8215 6.07985 17.3148ZM19.184 8.49998C16.867 8.49998 14.645 9.42868 13.0066 11.0818C11.3683 12.7349 10.4479 14.9769 10.4479 17.3148C10.4479 19.6526 11.3683 21.8947 13.0066 23.5478C14.645 25.2009 16.867 26.1296 19.184 26.1296C21.5009 26.1296 23.723 25.2009 25.3613 23.5478C26.9997 21.8947 27.9201 19.6526 27.9201 17.3148C27.9201 14.9769 26.9997 12.7349 25.3613 11.0818C23.723 9.42868 21.5009 8.49998 19.184 8.49998Z" fill="white"/>
</g>
<defs>
<clipPath id="clip0_3_290">
<rect width="67.6405" height="55.7041" fill="white" transform="scale(1.00531)"/>
</clipPath>
</defs>
</svg>
