<svg width="153" height="34" viewBox="0 0 153 34" fill="none" xmlns="http://www.w3.org/2000/svg">
<g clip-path="url(#clip0_3_380)">
<g clip-path="url(#clip1_3_380)">
<path d="M48.2554 31.9249L54.4193 32.0526C52.2949 31.3183 50.2349 30.4244 48.2554 29.3709V31.9249ZM57.5415 31.0789V31.9249L54.4193 32.0526C60.2935 34.0479 65.6688 34.3192 69.6601 33.2019C66.4574 33.2338 62.2892 32.7868 57.5415 31.0789ZM123.349 12.6901C125.908 12.6901 128 10.631 128 8.07697C128 5.52298 125.924 4.16617 123.349 4.16617C120.79 4.16617 118.698 5.53894 118.698 8.07697C118.698 10.615 120.774 12.6901 123.349 12.6901ZM118.682 31.9249H128V14.2864H118.682V31.9249ZM106.821 31.9249H116.139V0.750208L106.821 5.10796V31.9249ZM101.831 12.8657C98.9024 9.96054 93.7202 10.1361 93.7202 10.1361C93.7202 10.1361 88.522 9.96054 85.609 12.8657C82.6799 15.7709 82.9052 18.277 82.9052 21.2619C82.9052 24.2469 82.6799 26.7371 85.609 29.6422C88.5381 32.5474 93.7202 32.3718 93.7202 32.3718C93.7202 32.3718 98.9185 32.5474 101.831 29.6422C104.761 26.7371 104.535 24.2469 104.535 21.2619C104.519 18.261 104.744 15.7549 101.831 12.8657ZM95.4262 24.3427C95.4262 24.9173 95.1365 26.338 93.7042 26.338C92.2718 26.338 91.9821 24.9173 91.9821 24.3427V17.8939C91.9821 16.5051 93.157 16.154 93.7042 16.154C94.2513 16.154 95.4262 16.4892 95.4262 17.8939V24.3427ZM78.3346 12.8657C75.4056 9.96054 70.2234 10.1361 70.2234 10.1361C70.2234 10.1361 65.0412 9.96054 62.1121 12.8657C61.8063 13.169 61.5167 13.4882 61.2592 13.8235C55.1113 9.09857 49.5912 6.40091 44.8274 4.0704V0.766171L41.2063 2.45819C32.4513 -1.06951 26.8829 -0.446975 25.5471 2.47415C25.5471 2.47415 21.5398 7.70983 35.4931 20.1605V31.9249H44.8113V27.3596C43.7653 26.6892 42.7192 25.9709 41.6892 25.1887C39.3073 23.4009 37.2795 21.7408 35.5092 20.1765V15.2281C37.6174 17.5746 40.4178 20.2404 44.1032 23.2573L44.8274 23.8319V19.0751C44.8274 17.9737 45.101 16.1699 46.5656 16.1699C48.0301 16.1699 48.2715 17.2713 48.2715 18.5643V26.338C51.1684 28.2854 54.2745 29.8657 57.5576 31.0629V16.0742C57.5576 13.0892 55.401 10.1042 51.0235 10.1042C48.4807 10.0882 46.1149 11.4131 44.8274 13.6V4.93237C51.5707 8.26852 58.3301 12.3549 60.9051 14.2385C59.2635 16.569 59.4084 18.7239 59.4084 21.2141C59.4084 24.199 59.1831 26.6892 62.1121 29.5943C65.0412 32.4995 70.2234 32.3239 70.2234 32.3239C70.2234 32.3239 75.4217 32.4995 78.3346 29.5943C81.2637 26.6892 81.0223 24.199 81.0223 21.2141C81.0223 18.261 81.2637 15.7549 78.3346 12.8657ZM35.4931 5.10796V15.2122C27.6554 6.51265 29.2326 3.08072 29.8281 2.58589C32.0007 0.766171 35.8632 1.30889 40.1924 2.9211L35.4931 5.10796ZM71.9454 24.3427C71.9454 24.9173 71.6557 26.338 70.2234 26.338C68.791 26.338 68.5013 24.9173 68.5013 24.3427V17.8939C68.5013 16.5051 69.6762 16.154 70.2234 16.154C70.7706 16.154 71.9454 16.4892 71.9454 17.8939V24.3427Z" fill="white"/>
</g>
</g>
<defs>
<clipPath id="clip0_3_380">
<rect width="153" height="34" fill="white"/>
</clipPath>
<clipPath id="clip1_3_380">
<rect width="103" height="34" fill="white" transform="translate(25)"/>
</clipPath>
</defs>
</svg>
