<svg width="32" height="32" viewBox="0 0 32 32" fill="none" xmlns="http://www.w3.org/2000/svg">
<g clip-path="url(#clip0_503_358)">
<path d="M25.131 16.4693C24.9825 16.3205 24.8062 16.2026 24.6121 16.1221C24.418 16.0416 24.2099 16.0001 23.9998 16.0001C23.7896 16.0001 23.5816 16.0416 23.3875 16.1221C23.1934 16.2026 23.017 16.3205 22.8686 16.4693L20.3182 19.0196C19.1358 18.6676 16.9294 17.8676 15.5311 16.4693C14.1327 15.0709 13.3327 12.8645 12.9807 11.6821L15.5311 9.13173C15.6798 8.98328 15.7977 8.80695 15.8782 8.61285C15.9587 8.41875 16.0002 8.21068 16.0002 8.00055C16.0002 7.79041 15.9587 7.58235 15.8782 7.38824C15.7977 7.19414 15.6798 7.01782 15.5311 6.86936L9.13112 0.469422C8.98266 0.320711 8.80633 0.202731 8.61223 0.122235C8.41813 0.0417385 8.21006 0.000305176 7.99993 0.000305176C7.7898 0.000305176 7.58173 0.0417385 7.38762 0.122235C7.19352 0.202731 7.0172 0.320711 6.86874 0.469422L2.52958 4.80858C1.92159 5.41657 1.57919 6.25176 1.59199 7.10456C1.62879 9.38293 2.23198 17.2965 8.46872 23.5332C14.7055 29.7699 22.619 30.3715 24.899 30.4099H24.9438C25.7885 30.4099 26.5869 30.0771 27.1917 29.4723L31.5309 25.1332C31.6796 24.9847 31.7976 24.8084 31.8781 24.6143C31.9586 24.4202 32 24.2121 32 24.002C32 23.7919 31.9586 23.5838 31.8781 23.3897C31.7976 23.1956 31.6796 23.0193 31.5309 22.8708L25.131 16.4693ZM24.9278 27.2083C22.931 27.1747 16.099 26.6388 10.7311 21.2692C5.34555 15.8837 4.82396 9.02774 4.79196 7.07096L7.99993 3.86299L12.1375 8.00055L10.0687 10.0693C9.88065 10.2572 9.74238 10.4891 9.66639 10.7438C9.59041 10.9986 9.57911 11.2683 9.63351 11.5285C9.67191 11.7125 10.6111 16.0757 13.2671 18.7316C15.923 21.3876 20.2862 22.3268 20.4702 22.3652C20.7303 22.4211 21.0002 22.4107 21.2552 22.335C21.5102 22.2592 21.7421 22.1205 21.9294 21.9316L23.9998 19.8628L28.1373 24.0004L24.9278 27.2083Z" fill="#033A89"/>
</g>
<defs>
<clipPath id="clip0_503_358">
<rect width="32" height="32" fill="white"/>
</clipPath>
</defs>
</svg>
