<svg width="32" height="27" viewBox="0 0 32 27" fill="none" xmlns="http://www.w3.org/2000/svg">
<path d="M11.2143 25.1768C22.284 25.1768 28.3395 15.9409 28.3395 7.94568C28.3395 7.68723 28.3395 7.42509 28.3285 7.16664C29.5074 6.30728 30.5249 5.24333 31.3333 4.02465C30.2321 4.51358 29.0651 4.83582 27.8702 4.98091C29.1288 4.22336 30.0715 3.03142 30.523 1.62663C29.3405 2.33205 28.0462 2.82725 26.6968 3.09055C25.7897 2.11772 24.5892 1.47325 23.2815 1.25697C21.9737 1.04069 20.6317 1.26466 19.4631 1.89419C18.2946 2.52373 17.3648 3.52369 16.8178 4.73919C16.2708 5.95469 16.1372 7.31789 16.4375 8.61764C14.0445 8.49682 11.7035 7.87085 9.56625 6.78034C7.42899 5.68983 5.54325 4.15913 4.03133 2.28752C3.26379 3.62237 3.02955 5.20133 3.37618 6.70377C3.72282 8.20621 4.62433 9.51949 5.89767 10.3769C4.94349 10.3443 4.01029 10.0863 3.17333 9.62374V9.70681C3.17498 11.1052 3.65606 12.4601 4.53527 13.5425C5.41447 14.6249 6.63787 15.3684 7.99867 15.6474C7.48215 15.7907 6.94859 15.8621 6.41283 15.8597C6.03514 15.8609 5.6582 15.8256 5.28717 15.7545C5.67178 16.9582 6.42067 18.0107 7.42895 18.7644C8.43724 19.5182 9.65441 19.9355 10.91 19.958C8.77702 21.6449 6.14224 22.5598 3.43 22.5554C2.95209 22.5574 2.47451 22.5296 2 22.4723C4.75278 24.2394 7.94971 25.1778 11.2143 25.1768Z" fill="#033A89"/>
</svg>
