<svg width="32" height="32" viewBox="0 0 32 32" fill="none" xmlns="http://www.w3.org/2000/svg">
<path d="M16.6667 1.33337C12.6865 1.33337 12.186 1.35171 10.6222 1.42137C9.05833 1.49471 7.99317 1.74037 7.06 2.10337C6.08117 2.47154 5.19457 3.04906 4.46217 3.79554C3.71614 4.52832 3.1387 5.41481 2.77 6.39337C2.407 7.32471 2.1595 8.39171 2.088 9.95004C2.01833 11.5175 2 12.0162 2 16.0019C2 19.9839 2.01833 20.4825 2.088 22.0464C2.16133 23.6084 2.407 24.6735 2.77 25.6067C3.14583 26.571 3.64633 27.3887 4.46217 28.2045C5.27617 29.0204 6.09383 29.5227 7.05817 29.8967C7.99317 30.2597 9.0565 30.5072 10.6185 30.5787C12.1842 30.6484 12.6828 30.6667 16.6667 30.6667C20.6505 30.6667 21.1473 30.6484 22.713 30.5787C24.2732 30.5054 25.342 30.2597 26.2752 29.8967C27.2534 29.5284 28.1393 28.9508 28.8712 28.2045C29.687 27.3887 30.1875 26.571 30.5633 25.6067C30.9245 24.6735 31.172 23.6084 31.2453 22.0464C31.315 20.4825 31.3333 19.9839 31.3333 16C31.3333 12.0162 31.315 11.5175 31.2453 9.95187C31.172 8.39171 30.9245 7.32471 30.5633 6.39337C30.1947 5.41479 29.6172 4.52828 28.8712 3.79554C28.139 3.04878 27.2523 2.47122 26.2733 2.10337C25.3383 1.74037 24.2713 1.49287 22.7112 1.42137C21.1455 1.35171 20.6487 1.33337 16.663 1.33337H16.6685H16.6667ZM15.3522 3.97704H16.6685C20.5845 3.97704 21.0483 3.98987 22.5938 4.06137C24.0238 4.12554 24.8012 4.36571 25.3182 4.56554C26.002 4.83137 26.4915 5.15037 27.0048 5.66371C27.5182 6.17704 27.8353 6.66471 28.1012 7.35037C28.3028 7.86554 28.5412 8.64287 28.6053 10.0729C28.6768 11.6184 28.6915 12.0822 28.6915 15.9964C28.6915 19.9105 28.6768 20.3762 28.6053 21.9217C28.5412 23.3517 28.301 24.1272 28.1012 24.6442C27.866 25.281 27.4907 25.8568 27.003 26.329C26.4897 26.8424 26.002 27.1595 25.3163 27.4254C24.803 27.627 24.0257 27.8654 22.5938 27.9314C21.0483 28.001 20.5845 28.0175 16.6685 28.0175C12.7525 28.0175 12.2868 28.001 10.7413 27.9314C9.31133 27.8654 8.53583 27.627 8.01883 27.4254C7.38175 27.1906 6.8054 26.8159 6.33217 26.329C5.84404 25.8561 5.46816 25.2797 5.23217 24.6424C5.03233 24.1272 4.79217 23.3499 4.728 21.9199C4.65833 20.3744 4.64367 19.9105 4.64367 15.9927C4.64367 12.0767 4.65833 11.6147 4.728 10.0692C4.794 8.63921 5.03233 7.86187 5.234 7.34487C5.49983 6.66104 5.81883 6.17154 6.33217 5.65821C6.8455 5.14487 7.33317 4.82771 8.01883 4.56187C8.53583 4.36021 9.31133 4.12187 10.7413 4.05587C12.0943 3.99354 12.6187 3.97521 15.3522 3.97337V3.97704ZM24.4968 6.41171C24.2657 6.41171 24.0368 6.45723 23.8233 6.54568C23.6098 6.63413 23.4158 6.76377 23.2523 6.9272C23.0889 7.09063 22.9593 7.28465 22.8708 7.49818C22.7824 7.71172 22.7368 7.94058 22.7368 8.17171C22.7368 8.40283 22.7824 8.6317 22.8708 8.84523C22.9593 9.05876 23.0889 9.25278 23.2523 9.41622C23.4158 9.57965 23.6098 9.70929 23.8233 9.79774C24.0368 9.88618 24.2657 9.93171 24.4968 9.93171C24.9636 9.93171 25.4113 9.74628 25.7413 9.41622C26.0714 9.08615 26.2568 8.63849 26.2568 8.17171C26.2568 7.70493 26.0714 7.25726 25.7413 6.9272C25.4113 6.59714 24.9636 6.41171 24.4968 6.41171ZM16.6685 8.46871C15.6695 8.45312 14.6773 8.63643 13.7498 9.00797C12.8223 9.3795 11.9779 9.93184 11.2659 10.6328C10.5539 11.3338 9.9885 12.1694 9.60254 13.091C9.21658 14.0126 9.01782 15.0018 9.01782 16.001C9.01782 17.0001 9.21658 17.9893 9.60254 18.9109C9.9885 19.8325 10.5539 20.6681 11.2659 21.3691C11.9779 22.0701 12.8223 22.6224 13.7498 22.9939C14.6773 23.3655 15.6695 23.5488 16.6685 23.5332C18.6458 23.5024 20.5317 22.6952 21.9191 21.286C23.3065 19.8768 24.0842 17.9785 24.0842 16.001C24.0842 14.0234 23.3065 12.1251 21.9191 10.7159C20.5317 9.3067 18.6458 8.49956 16.6685 8.46871ZM16.6685 11.1105C17.9653 11.1105 19.2089 11.6257 20.1259 12.5426C21.0429 13.4596 21.558 14.7033 21.558 16C21.558 17.2968 21.0429 18.5405 20.1259 19.4574C19.2089 20.3744 17.9653 20.8895 16.6685 20.8895C15.3717 20.8895 14.1281 20.3744 13.2111 19.4574C12.2941 18.5405 11.779 17.2968 11.779 16C11.779 14.7033 12.2941 13.4596 13.2111 12.5426C14.1281 11.6257 15.3717 11.1105 16.6685 11.1105Z" fill="#033A89"/>
</svg>
