<svg width="151" height="62" viewBox="0 0 151 62" fill="none" xmlns="http://www.w3.org/2000/svg">
<g clip-path="url(#clip0_3_392)">
<g clip-path="url(#clip1_3_392)">
<path d="M52.8871 22.4887C52.7705 26.1267 54.6043 27.7378 54.6496 28.7609C54.628 28.9692 54.5565 29.1693 54.4409 29.3445C54.3254 29.5197 54.1692 29.6649 53.9855 29.768L51.9119 31.2072C51.6436 31.3937 51.3273 31.5007 50.9999 31.5156C50.9303 31.5124 49.6732 31.8095 47.6823 27.4021C46.4676 28.9054 44.9222 30.1133 43.1642 30.9332C41.4062 31.7531 39.4823 32.1633 37.5398 32.1324C34.9026 32.2753 27.7554 30.6483 28.1231 23.1038C27.8656 16.9552 33.6407 13.1357 39.6134 13.4585C40.7635 13.4617 43.1124 13.5179 47.2255 14.4656V11.9567C47.6612 7.70665 44.8441 4.40908 39.9665 4.9038C39.5777 4.9054 36.8238 4.82349 32.5407 6.52768C31.3484 7.07058 31.1962 6.98064 30.7993 6.98064C29.5989 6.98064 30.093 3.53048 30.323 3.09359C31.167 2.06561 36.1321 0.14618 41.0049 0.173486C44.263 -0.112216 47.5036 0.884799 50.0263 2.94903C51.0518 4.08636 51.8341 5.41798 52.3261 6.86347C52.8181 8.30895 53.0095 9.83831 52.8888 11.3592L52.8871 22.4887ZM38.8876 27.6912C44.1411 27.6157 46.3653 24.4836 46.8723 22.7971C47.2708 21.1828 47.2044 20.1613 47.2044 18.396C45.6379 18.0234 43.383 17.617 40.7959 17.6138C38.3417 17.4307 33.8593 18.5181 34.0343 22.7955C33.8334 25.4923 35.8357 27.839 38.8876 27.6912ZM66.5756 31.3935C65.3023 31.5092 64.7094 30.6129 64.5215 29.7279L56.4542 3.28152C56.2971 2.83499 56.1934 2.374 56.1432 1.90338C56.1135 1.70936 56.1626 1.51155 56.2798 1.35343C56.3971 1.19531 56.5729 1.08982 56.7685 1.06012C56.8074 1.05369 56.4235 1.06012 60.3729 1.06012C61.7952 0.91877 62.2585 2.02867 62.4059 2.72577L68.1923 25.3461L73.564 2.72577C73.6499 2.20856 74.0403 0.947683 75.6375 1.081H78.4174C78.7689 1.05209 80.2171 1.00069 80.4714 2.74665L85.8853 25.6561L91.858 2.74665C91.9357 2.39649 92.2986 0.920377 93.9121 1.081H97.1066C97.2443 1.06012 98.1028 0.950895 97.957 2.45913C97.8874 2.75628 98.5094 0.746906 89.4119 29.7488C89.2256 30.6338 88.6311 31.5301 87.3578 31.4144H84.3301C82.5579 31.5991 82.3036 29.8628 82.276 29.6877L76.9043 7.66167L71.5942 29.6652C71.5683 29.8403 71.3139 31.5766 69.5401 31.3919H66.5756V31.3935ZM110.878 32.2978C109.925 32.2994 105.383 32.2496 101.586 30.3238C101.207 30.165 100.885 29.8984 100.66 29.5578C100.435 29.2173 100.317 28.818 100.321 28.4108V26.6841C100.321 25.3269 101.325 25.5758 101.751 25.738C103.377 26.3902 104.421 26.8849 106.418 27.28C112.355 28.4895 114.966 26.9106 115.606 26.5604C117.736 25.306 117.905 22.4357 116.457 20.9467C114.759 19.5348 113.949 19.4818 107.85 17.5736C107.098 17.3664 100.771 15.3876 100.756 9.16349C100.657 4.62753 104.814 0.139755 112.018 0.176698C114.071 0.175092 119.539 0.840066 121.02 2.68561C121.239 3.02131 121.347 3.41644 121.331 3.81639V5.44027C121.331 6.15343 121.069 6.51001 120.542 6.51001C119.293 6.37188 117.077 4.71587 112.579 4.78333C111.462 4.72551 106.117 4.9295 106.356 8.79406C106.287 11.8394 110.667 12.9815 111.168 13.1132C117.074 14.8752 119.049 15.1675 121.393 17.8644C124.169 21.4382 122.672 25.6224 122.097 26.7692C119.007 32.7909 111.014 32.301 110.878 32.2978ZM117.39 49.1406C106.045 57.448 89.5771 61.8699 75.516 61.8699C56.5434 61.994 38.2102 55.0768 24.1203 42.478C23.0625 41.532 23.9955 40.2358 25.2818 40.957C40.9117 49.8219 58.608 54.4799 76.6144 54.4685C90.061 54.397 103.361 51.6922 115.75 46.5097C117.659 45.7065 119.277 47.7625 117.39 49.1406ZM122.118 43.7935C120.667 41.9432 112.515 42.9294 108.866 43.3615C107.766 43.4851 107.579 42.5391 108.576 41.8404C115.067 37.3157 125.728 38.6119 126.952 40.133C128.175 41.6541 126.62 52.2455 120.544 57.305C119.611 58.0873 118.718 57.6745 119.133 56.6465C120.5 53.2333 123.57 45.6455 122.118 43.7935Z" fill="white"/>
</g>
</g>
<defs>
<clipPath id="clip0_3_392">
<rect width="151" height="62" fill="white"/>
</clipPath>
<clipPath id="clip1_3_392">
<rect width="104" height="62" fill="white" transform="translate(23.5)"/>
</clipPath>
</defs>
</svg>
