<svg width="246" height="77" viewBox="0 0 246 77" fill="none" xmlns="http://www.w3.org/2000/svg">
<g clip-path="url(#clip0_503_274)">
<path d="M36.8453 27.9827H30.4643V24.896H46.7995V27.9827H40.4185V44.5478H36.8453V27.9827Z" fill="#D3134A"/>
<path d="M61.9258 29.5537V44.5478H58.6511V42.6385C58.0998 43.313 57.39 43.8469 56.5823 44.1949C55.746 44.562 54.8388 44.7485 53.9223 44.7417C51.9519 44.7417 50.4072 44.1862 49.288 43.0753C48.1689 41.9644 47.6083 40.3087 47.6063 38.1081V29.5537H51.0347V37.6308C51.0347 38.9808 51.3303 39.9866 51.9214 40.6481C52.5125 41.3097 53.3627 41.6452 54.472 41.6549C55.0167 41.6807 55.5605 41.5907 56.0662 41.3909C56.5718 41.1911 57.0272 40.8864 57.4009 40.4977C58.124 39.7263 58.4866 38.6086 58.4886 37.1448V29.5537H61.9258Z" fill="#D3134A"/>
<path d="M73.8337 29.3859V32.7215C73.5709 32.6694 73.3037 32.6413 73.0357 32.6376C71.6978 32.6376 70.6525 33.0358 69.8999 33.8324C69.1472 34.6289 68.7718 35.7735 68.7738 37.2663V44.5478H65.3395V29.5537H68.6142V31.7408C69.5994 30.1709 71.3392 29.3859 73.8337 29.3859Z" fill="#D3134A"/>
<path d="M87.6241 30.3376C88.7532 30.9711 89.6755 31.905 90.2841 33.031C90.945 34.2679 91.2764 35.6479 91.2476 37.0435C91.274 38.4459 90.9407 39.8325 90.2782 41.0763C89.6726 42.2081 88.7499 43.1474 87.6182 43.7841C86.4473 44.4314 85.1206 44.7601 83.776 44.7358C82.8271 44.7479 81.8861 44.5666 81.0126 44.2035C80.1929 43.8482 79.4782 43.296 78.9349 42.5979V44.5478H75.6483V23.7186H79.0856V31.3762C79.6531 30.7355 80.36 30.2274 81.1545 29.8892C81.9847 29.5468 82.8781 29.3754 83.779 29.3859C85.1244 29.3625 86.4518 29.6911 87.6241 30.3376ZM86.5247 40.4369C87.3404 39.5787 87.7483 38.4475 87.7483 37.0435C87.7483 35.6394 87.3404 34.5083 86.5247 33.6501C86.13 33.2275 85.6469 32.8933 85.1083 32.6701C84.5697 32.4469 83.9883 32.3401 83.4036 32.3569C82.6208 32.3475 81.8503 32.5476 81.1752 32.9355C80.5072 33.3289 79.9647 33.897 79.6087 34.5758C79.2066 35.339 79.0035 36.1877 79.0176 37.0464C79.004 37.904 79.2071 38.7517 79.6087 39.5141C79.9625 40.1944 80.5055 40.763 81.1752 41.1544C81.8498 41.5436 82.6207 41.7437 83.4036 41.733C83.9884 41.749 84.5699 41.6416 85.1085 41.4179C85.647 41.1943 86.1301 40.8597 86.5247 40.4369Z" fill="#D3134A"/>
<path d="M95.9971 43.7464C94.8231 43.1099 93.8562 42.1624 93.2071 41.0126C92.5247 39.7978 92.1783 38.4296 92.2022 37.0435C92.1768 35.6618 92.5233 34.2978 93.2071 33.0888C93.8601 31.9463 94.8265 31.0054 95.9971 30.3723C97.2385 29.7284 98.6221 29.3918 100.027 29.3918C101.432 29.3918 102.815 29.7284 104.057 30.3723C105.228 31.007 106.195 31.95 106.847 33.0946C107.529 34.3042 107.876 35.6677 107.852 37.0492C107.874 38.4352 107.528 39.8031 106.847 41.0184C106.197 42.1661 105.23 43.1115 104.057 43.7464C102.815 44.3903 101.432 44.727 100.027 44.727C98.6221 44.727 97.2385 44.3903 95.9971 43.7464ZM103.149 40.4369C103.975 39.5786 104.387 38.4475 104.385 37.0435C104.383 35.6394 103.971 34.5083 103.149 33.65C102.751 33.2282 102.265 32.8945 101.724 32.6715C101.184 32.4485 100.6 32.3412 100.014 32.3569C99.4291 32.3401 98.8476 32.4469 98.309 32.6701C97.7704 32.8932 97.2873 33.2275 96.8927 33.65C96.0769 34.5083 95.6691 35.6394 95.6691 37.0435C95.6691 38.4475 96.0769 39.5786 96.8927 40.4369C97.2878 40.8586 97.7711 41.1921 98.3096 41.4148C98.8481 41.6374 99.4293 41.7439 100.014 41.7271C100.6 41.7419 101.183 41.6345 101.723 41.412C102.264 41.1896 102.75 40.8572 103.149 40.4369Z" fill="#D3134A"/>
<path d="M122.086 24.9249H126.377V44.5478H122.086V36.8179H114.451V44.5478H110.16V24.9249H114.451V33.1149H122.086V24.9249Z" fill="#033A89"/>
<path d="M142.42 42.3434C141.658 43.1129 140.745 43.7234 139.736 44.1381C138.726 44.5528 137.642 44.763 136.547 44.7561C134.301 44.7561 132.445 44.0502 130.979 42.6385C129.513 41.2267 128.779 39.3338 128.777 36.9596C128.777 34.5836 129.525 32.6945 131.02 31.2923C131.716 30.6154 132.542 30.0808 133.451 29.7197C134.359 29.3587 135.333 29.1783 136.313 29.1892C138.223 29.143 140.078 29.8149 141.497 31.0667C142.918 32.3222 143.628 34.0435 143.628 36.2306V38.4726H132.85C132.909 38.8766 133.052 39.2644 133.269 39.6126C133.487 39.9607 133.774 40.2619 134.115 40.4977C134.809 41.0152 135.659 41.2921 136.532 41.2846C137.204 41.304 137.872 41.1806 138.491 40.9229C139.109 40.6652 139.663 40.2793 140.114 39.7918L142.42 42.3434ZM138.459 33.3955C137.886 32.9094 137.148 32.6495 136.39 32.6665C135.578 32.6648 134.788 32.9319 134.15 33.4244C133.818 33.6666 133.542 33.9739 133.338 34.3265C133.135 34.6792 133.009 35.0696 132.968 35.4727H139.47C139.425 34.6772 139.062 33.9312 138.459 33.3955Z" fill="#033A89"/>
<path d="M158.066 44.5478H154.188V42.7079C153.124 44.0733 151.809 44.7561 150.243 44.7561C148.795 44.7994 147.385 44.3031 146.297 43.3675C145.233 42.4417 144.701 41.2074 144.701 39.6645C144.701 38.1216 145.251 36.9644 146.35 36.1929C147.45 35.4215 148.953 35.0358 150.86 35.0358H153.94V34.9519C153.94 33.3434 153.107 32.5392 151.44 32.5392C150.663 32.5504 149.894 32.6983 149.17 32.976C148.441 33.2274 147.759 33.5918 147.148 34.0551L145.307 31.3328C147.216 29.9055 149.558 29.1456 151.96 29.1747C153.757 29.1747 155.224 29.6327 156.361 30.5488C157.498 31.4649 158.066 32.9114 158.066 34.8882V44.5478ZM153.914 38.7821V38.0531H151.327C149.678 38.0531 148.854 38.5767 148.854 39.624C148.839 39.8635 148.885 40.1029 148.988 40.3205C149.091 40.5382 149.248 40.7273 149.445 40.8708C149.945 41.1923 150.538 41.3456 151.135 41.3077C151.845 41.3151 152.534 41.0705 153.074 40.6192C153.349 40.3965 153.567 40.115 153.713 39.7965C153.858 39.4779 153.927 39.1309 153.914 38.7821Z" fill="#033A89"/>
<path d="M164.858 44.5478H160.72V23.7186H164.858V44.5478Z" fill="#033A89"/>
<path d="M172.587 32.4698V39.2306C172.556 39.7216 172.713 40.2062 173.027 40.5903C173.152 40.7434 173.311 40.8672 173.491 40.9523C173.672 41.0374 173.87 41.0817 174.07 41.0821C174.461 41.0758 174.843 40.9751 175.184 40.7888C175.525 40.6025 175.814 40.3365 176.024 40.0146L177.564 42.9625C176.281 44.1582 174.928 44.7561 173.506 44.7561C172.838 44.7695 172.174 44.6497 171.554 44.4041C170.935 44.1584 170.373 43.7919 169.903 43.327C168.918 42.3723 168.425 41.0724 168.425 39.4273V32.4842H166.714V29.4408H168.446V24.9249H172.598V29.4408H176.172V32.4698H172.587Z" fill="#033A89"/>
<path d="M182.789 36.3984V44.5478H178.651V23.7186H182.789V31.1245C184.036 29.8343 185.434 29.1891 186.983 29.1891C187.721 29.1777 188.454 29.3221 189.13 29.6127C189.806 29.9032 190.411 30.333 190.902 30.8728C191.962 31.9934 192.493 33.489 192.495 35.3598V44.5478H188.357V36.2855C188.357 33.9712 187.523 32.814 185.854 32.814C185.449 32.813 185.049 32.8934 184.677 33.0502C184.305 33.2069 183.971 33.4367 183.693 33.7253C183.092 34.3289 182.791 35.22 182.789 36.3984Z" fill="#033A89"/>
<path d="M195.149 44.3511C195.063 44.2634 194.996 44.1599 194.952 44.0467C194.907 43.9335 194.886 43.8128 194.889 43.6915C194.886 43.5689 194.909 43.4471 194.956 43.3335C195.003 43.22 195.074 43.1173 195.164 43.0319C195.246 42.9485 195.344 42.882 195.453 42.8363C195.561 42.7906 195.678 42.7666 195.796 42.7658C195.917 42.7635 196.036 42.786 196.147 42.8318C196.258 42.8777 196.358 42.9459 196.441 43.0319C196.527 43.1191 196.595 43.2224 196.64 43.3357C196.685 43.449 196.707 43.5699 196.704 43.6915C196.706 43.813 196.684 43.9338 196.639 44.047C196.594 44.1602 196.527 44.2635 196.441 44.3511C196.357 44.4355 196.256 44.5026 196.145 44.5484C196.034 44.5942 195.915 44.6178 195.795 44.6178C195.674 44.6178 195.555 44.5942 195.444 44.5484C195.333 44.5026 195.233 44.4355 195.149 44.3511Z" fill="#282828"/>
<path d="M212.791 29.8892V44.5478H211.469V41.3916C211.027 42.3814 210.289 43.2173 209.353 43.7898C208.359 44.3804 207.214 44.6815 206.052 44.6577C204.184 44.6577 202.718 44.1254 201.654 43.0608C200.59 41.9962 200.058 40.4629 200.058 38.461V29.8892H201.432V38.3337C201.432 39.9788 201.845 41.2325 202.671 42.0945C203.496 42.9566 204.661 43.3887 206.164 43.3906C207.774 43.3906 209.055 42.8766 210.006 41.8486C210.958 40.8207 211.43 39.4369 211.422 37.6973V29.8863L212.791 29.8892Z" fill="#282828"/>
<path d="M217.845 44.1109C216.942 43.8353 216.108 43.377 215.397 42.7657L216.036 41.6548C216.707 42.2077 217.476 42.6352 218.306 42.9161C219.233 43.2546 220.215 43.4261 221.205 43.4224C222.653 43.4224 223.721 43.1794 224.409 42.6934C224.741 42.468 225.009 42.1642 225.19 41.8102C225.37 41.4563 225.456 41.0635 225.44 40.6683C225.453 40.4021 225.41 40.1361 225.313 39.8871C225.216 39.6382 225.067 39.4116 224.876 39.2218C224.483 38.8577 224.008 38.5892 223.49 38.4379C222.738 38.2179 221.976 38.0364 221.205 37.894C220.272 37.739 219.353 37.5136 218.456 37.2199C217.765 36.981 217.147 36.5727 216.662 36.0338C216.166 35.4899 215.92 34.7436 215.92 33.7889C215.911 33.2347 216.034 32.6861 216.28 32.1868C216.526 31.6876 216.888 31.2514 217.336 30.9133C218.28 30.1553 219.623 29.7764 221.365 29.7764C222.287 29.7782 223.203 29.9107 224.087 30.1698C224.879 30.3816 225.625 30.7336 226.288 31.2084L225.656 32.3308C225.05 31.8909 224.37 31.558 223.646 31.3472C222.898 31.1245 222.12 31.0114 221.338 31.0117C219.998 31.0117 218.989 31.2643 218.311 31.7696C217.989 31.9954 217.728 32.2947 217.551 32.6415C217.374 32.9884 217.286 33.3723 217.295 33.76C217.279 34.0413 217.324 34.3227 217.425 34.5862C217.527 34.8497 217.684 35.0895 217.886 35.2903C218.288 35.6649 218.774 35.9432 219.305 36.1032C220.082 36.3354 220.871 36.5285 221.669 36.6818C222.576 36.8385 223.471 37.0579 224.347 37.3385C225.019 37.5614 225.62 37.9523 226.09 38.4726C226.597 39.0796 226.853 39.8509 226.806 40.6336C226.822 41.2009 226.695 41.7633 226.438 42.2717C226.18 42.7801 225.799 43.2189 225.328 43.5497C224.343 44.2787 222.95 44.6432 221.149 44.6432C220.025 44.6492 218.907 44.4692 217.845 44.1109Z" fill="#282828"/>
</g>
<defs>
<clipPath id="clip0_503_274">
<rect width="196" height="21" fill="white" transform="translate(30.4643 23.7186) scale(1.00179)"/>
</clipPath>
</defs>
</svg>
