<svg width="32" height="40" viewBox="0 0 32 40" fill="none" xmlns="http://www.w3.org/2000/svg">
<path d="M16 23.9998C20.4119 23.9998 23.9999 20.4118 23.9999 15.9998C23.9999 11.5879 20.4119 7.99994 16 7.99994C11.588 7.99994 8.00006 11.5879 8.00006 15.9998C8.00006 20.4118 11.588 23.9998 16 23.9998ZM16 11.9999C18.2059 11.9999 19.9999 13.7939 19.9999 15.9998C19.9999 18.2058 18.2059 19.9998 16 19.9998C13.794 19.9998 12 18.2058 12 15.9998C12 13.7939 13.794 11.9999 16 11.9999Z" fill="#033A89"/>
<path d="M14.84 39.6276C15.1785 39.8693 15.5841 39.9992 16 39.9992C16.4159 39.9992 16.8215 39.8693 17.16 39.6276C17.768 39.1976 32.0578 28.8797 31.9998 15.9998C31.9998 7.17792 24.8219 0 16 0C7.1781 0 0.000176074 7.17792 0.000176074 15.9898C-0.0578233 28.8797 14.232 39.1976 14.84 39.6276ZM16 3.99996C22.6179 3.99996 27.9999 9.3819 27.9999 16.0098C28.0419 24.8857 19.224 32.8556 16 35.4696C12.778 32.8536 3.95813 24.8817 4.00013 15.9998C4.00013 9.3819 9.38207 3.99996 16 3.99996Z" fill="#033A89"/>
</svg>
