<svg width="16" height="14" viewBox="0 0 16 14" fill="none" xmlns="http://www.w3.org/2000/svg">
<path fill-rule="evenodd" clip-rule="evenodd" d="M0 6.66667C0 6.41413 0.105345 6.17193 0.292861 5.99336C0.480376 5.81478 0.734702 5.71446 0.999889 5.71446H12.5846L8.29108 1.62758C8.10333 1.44878 7.99785 1.20627 7.99785 0.953413C7.99785 0.700552 8.10333 0.458048 8.29108 0.279248C8.47883 0.100449 8.73348 0 8.999 0C9.26452 0 9.51917 0.100449 9.70692 0.279248L15.7063 5.99251C15.7994 6.08096 15.8732 6.18604 15.9237 6.30172C15.9741 6.4174 16 6.54142 16 6.66667C16 6.79192 15.9741 6.91594 15.9237 7.03162C15.8732 7.1473 15.7994 7.25238 15.7063 7.34084L9.70692 13.0541C9.51917 13.2329 9.26452 13.3333 8.999 13.3333C8.73348 13.3333 8.47883 13.2329 8.29108 13.0541C8.10333 12.8753 7.99785 12.6328 7.99785 12.3799C7.99785 12.1271 8.10333 11.8846 8.29108 11.7058L12.5846 7.61888H0.999889C0.734702 7.61888 0.480376 7.51856 0.292861 7.33998C0.105345 7.16141 0 6.91921 0 6.66667Z" fill="white"/>
</svg>
